<?xml version="1.0" encoding="UTF-8" standalone="no"?>
<svg
   xmlns:dc="http://purl.org/dc/elements/1.1/"
   xmlns:cc="http://creativecommons.org/ns#"
   xmlns:rdf="http://www.w3.org/1999/02/22-rdf-syntax-ns#"
   xmlns:svg="http://www.w3.org/2000/svg"
   xmlns="http://www.w3.org/2000/svg"
   id="svg95"
   version="1.1"
   viewBox="0 0 260.20355 115.75624"
   height="115.75624mm"
   width="260.20355mm">
  <defs
     id="defs89" />
  <metadata
     id="metadata92">
    <rdf:RDF>
      <cc:Work
         rdf:about="">
        <dc:format>image/svg+xml</dc:format>
        <dc:type
           rdf:resource="http://purl.org/dc/dcmitype/StillImage" />
        <dc:title></dc:title>
      </cc:Work>
    </rdf:RDF>
  </metadata>
  <g
     transform="translate(190.57796,-90.955208)"
     id="layer1">
    <g
       transform="matrix(1.6565878,0,0,1.6565878,-226.63158,-106.15139)"
       id="g967">
      <path
         style="color:#000000;font-style:normal;font-variant:normal;font-weight:normal;font-stretch:normal;font-size:medium;line-height:normal;font-family:sans-serif;font-variant-ligatures:normal;font-variant-position:normal;font-variant-caps:normal;font-variant-numeric:normal;font-variant-alternates:normal;font-feature-settings:normal;text-indent:0;text-align:start;text-decoration:none;text-decoration-line:none;text-decoration-style:solid;text-decoration-color:#000000;letter-spacing:normal;word-spacing:normal;text-transform:none;writing-mode:lr-tb;direction:ltr;text-orientation:mixed;dominant-baseline:auto;baseline-shift:baseline;text-anchor:start;white-space:normal;shape-padding:0;clip-rule:nonzero;display:inline;overflow:visible;visibility:visible;opacity:1;isolation:auto;mix-blend-mode:normal;color-interpolation:sRGB;color-interpolation-filters:linearRGB;solid-color:#000000;solid-opacity:1;vector-effect:none;fill:#000000;fill-opacity:1;fill-rule:nonzero;stroke:none;stroke-width:0.26458332px;stroke-linecap:butt;stroke-linejoin:miter;stroke-miterlimit:4;stroke-dasharray:none;stroke-dashoffset:0;stroke-opacity:1;color-rendering:auto;image-rendering:auto;shape-rendering:auto;text-rendering:auto;enable-background:accumulate"
         d="M 75.66748,119.00255 63.80877,138.16521 H 47.596324 l -0.998387,0.43149 -1.040765,0.4501 -1.021125,0.44132 h 18.454171 l -19.041734,30.77022 -13.514935,7.80262 -5.29e-4,5.3e-4 -0.984951,0.56844 -0.713137,0.8878 -5.061705,6.30505 -1.750281,2.18022 -0.159163,0.8568 1.749764,-2.17971 6.206855,-7.73131 13.769186,-7.94939 2.421041,-1.39785 0.458888,-0.74104 18.176666,-29.37236 h 8.608777 v 3.76049 l -0.832507,0.91932 -9.454721,27.2247 -10.86807,6.89932 -1.603002,2.38745 -1.283126,1.91151 -0.271817,0.79892 -0.05633,0.16485 1.61127,-2.39934 1.792655,-2.67012 10.986927,-6.97684 0.112654,-0.0713 0.139009,-0.39997 -0.409276,0.25993 0.409276,-0.26045 8.493022,-24.45484 1.234033,-1.3627 v 8.28941 h 0.412895 v -14.02033 h 0.764813 v 14.02343 h 1.333251 v -14.02343 h 0.0016 v -1.32292 h -0.0016 v -15.78147 l 0.0016,-0.004 v -0.86302 z m -1.334802,4.67155 v 1.7663 12.72481 H 73.567866 V 124.9102 Z m -1.177708,1.90324 v 2.85771 l -0.838708,0.92604 -0.350366,1.02888 -0.365353,1.07383 -0.358116,1.05317 1.912543,-2.1115 v 7.75974 h -7.790222 z"
         id="path3415-3" />
      <path
         style="opacity:1;vector-effect:none;fill:#000000;fill-opacity:1;stroke-width:0.24969336;stroke-linecap:butt;stroke-linejoin:miter;stroke-miterlimit:4;stroke-dasharray:none;stroke-dashoffset:0;stroke-opacity:1"
         d="m 80.019315,138.12754 -0.276468,0.30851 -1.96164,2.1885 -1.333251,1.48776 v 1.9973 9.39736 h 1.333251 v -10.88513 l 2.860807,-3.19153 1.506369,1.66449 v 5.25498 l -0.838708,0.92604 -0.350367,1.02888 -0.365352,1.07383 -0.358117,1.05317 1.912544,-2.1115 v 5.18677 h 0.412895 v -11.95586 l 0.765845,0.84646 v 1.71204 9.39736 h 1.333251 v -9.63559 -0.61443 -0.63511 l 2.74402,-3.06131 1.390094,1.53634 v 5.23482 l -0.837673,0.92501 -0.350367,1.02888 -0.365352,1.07384 -0.358116,1.05316 1.911508,-2.11046 v 5.20485 h 0.41238 v -11.95431 l 0.636138,0.7028 0.128672,0.14211 v 11.1094 h 1.333254 v -9.63559 -0.61392 l -1.185458,-1.31051 -0.147796,-0.1633 -2.290816,-2.53163 -0.89917,-0.99425 -0.276469,0.30851 -1.844849,2.05827 -1.185455,1.3224 z"
         id="path3085-6" />
      <path
         style="opacity:1;vector-effect:none;fill:#000000;fill-opacity:1;stroke-width:0.21712521;stroke-linecap:butt;stroke-linejoin:miter;stroke-miterlimit:4;stroke-dasharray:none;stroke-dashoffset:0;stroke-opacity:1"
         d="m 128.32151,118.98349 -0.29197,0.29146 -6.29781,6.29832 -1.33325,1.33325 v 16.79174 1.88568 l 1.33325,1.33324 6.29781,6.29833 0.29197,0.29146 0.94258,-0.9431 2.4045,-2.4045 7.25848,20.90104 0.40927,0.26045 -0.40927,-0.25993 0.139,0.39998 0.11266,0.0713 10.98693,6.97683 1.79265,2.67012 1.61127,2.39934 -0.0563,-0.16485 -0.27182,-0.79892 -1.28313,-1.91151 -1.603,-2.38745 -10.86807,-6.89932 -7.49463,-21.58111 3.23339,-3.23339 0.41238,-0.41238 0.6351,-0.63511 1.33325,-1.33325 v -0.5829 -4.15479 h 5.3e-4 v 2.50683 l 16.62276,26.86141 0.45888,0.74103 2.42105,1.39785 13.76918,7.94939 6.20686,7.73131 1.74976,2.17971 -0.15916,-0.85679 -1.75028,-2.18023 -5.06171,-6.30505 -0.71314,-0.8878 -0.98495,-0.56844 -5.3e-4,-5.3e-4 -13.51495,-7.80261 -19.03915,-30.76608 h 14.81357 l -1.02165,-0.44131 -1.04076,-0.45011 -0.99787,-0.43149 h -11.75846 v -9.89139 l -1.33325,-1.33325 -0.6351,-0.63511 -0.41238,-0.41237 -5.96191,-5.96191 z m 0.87643,1.45986 6.02806,6.02806 v 11.68921 h -6.02806 v -7.7308 l 1.88619,2.08256 -0.35811,-1.05316 -0.36536,-1.07384 -0.35036,-1.02888 -0.81236,-0.8971 z m -0.46302,0.0124 v 17.70487 h -7.00319 v -10.70168 z m 6.90346,6.42803 0.6351,0.63511 v 10.64173 h -0.6351 z m -13.90665,12.59975 h 7.00319 v 12.55117 l -7.00319,-7.00319 z m 7.46621,0 h 6.02806 v 6.53552 l -3.38377,3.38377 -1.80971,-5.21105 -0.83458,-0.92139 z m 6.44044,0 h 0.6351 v 5.48804 l -0.6351,0.6351 z m -6.44044,5.75727 1.2361,1.36478 1.08418,3.12125 -2.32028,2.32027 z"
         id="path2751-0-75" />
      <path
         style="opacity:1;vector-effect:none;fill:#000000;fill-opacity:1;stroke-width:0.21712524;stroke-linecap:butt;stroke-linejoin:miter;stroke-miterlimit:4;stroke-dasharray:none;stroke-dashoffset:0;stroke-opacity:1"
         d="m 95.925427,138.22676 -0.291967,0.29197 -1.036119,1.03612 -0.412891,0.41289 -0.764299,0.7643 -1.333251,1.33325 v 1.88515 9.55653 h 1.333251 v -6.83421 l 0.764299,0.84025 v 5.99396 h 0.412891 v -5.53972 l 1.631426,1.79368 0.278021,0.30542 0.291971,-0.29197 2.612239,-2.61225 1.333262,-1.33325 v -0.58394 -1.10588 -0.6134 l -1.333262,-1.46554 -2.587951,-2.84582 z m 0.60565,1.27951 2.879921,3.16673 v 3.90519 l -2.890261,2.89078 -1.923396,-2.11512 V 141.44 Z m -2.346627,2.34662 v 5.04673 l -0.764299,-0.84026 v -3.44217 z"
         id="path2796-3-3" />
      <path
         style="opacity:1;vector-effect:none;fill:#000000;fill-opacity:1;stroke-width:0.25101405;stroke-linecap:butt;stroke-linejoin:miter;stroke-miterlimit:4;stroke-dasharray:none;stroke-dashoffset:0;stroke-opacity:1"
         d="m 114.79919,138.22676 -0.29197,0.29197 -2.21331,2.21331 -1.33325,1.33325 v 1.88515 9.55653 h 1.33325 v -6.83421 l 2.80862,3.08817 0.27802,0.30542 0.29197,-0.29197 0.44132,-0.44132 1.75855,1.8805 v 2.29341 h 0.41289 v -1.85157 -1.95182 l -0.41289,-0.44132 -0.81546,-0.87229 1.22783,-1.22784 1.33326,-1.33325 v -0.58394 -1.10588 -0.6134 l -1.33326,-1.46554 -2.58795,-2.84582 z m 0.60565,1.27951 2.87992,3.16673 v 3.90519 l -1.50998,1.50998 -4.48087,-4.79247 v -0.67851 z m -3.11093,5.74125 3.53777,3.78375 -0.43718,0.4377 -3.10059,-3.40961 z"
         id="path2479-7-5" />
      <path
         style="opacity:1;vector-effect:none;fill:#000000;fill-opacity:1;stroke-width:0.25101405;stroke-linecap:butt;stroke-linejoin:miter;stroke-miterlimit:4;stroke-dasharray:none;stroke-dashoffset:0;stroke-opacity:1"
         d="m 105.36283,138.22676 -0.29198,0.29197 -2.2133,2.21331 -1.33325,1.33325 v 1.88515 9.55653 h 1.33325 v -4.85604 h 4.81056 v 4.85604 h 0.41238 v -4.85604 h 0.76429 v 4.85758 h 1.33325 v -9.37358 l 0.004,0.004 v -0.6134 l -0.004,-0.004 -1.32963,-1.46141 -0.76791,-0.84439 -0.41238,-0.45372 -1.40767,-1.54771 z m 0.60564,1.27951 1.69964,1.86862 v 5.95312 h -4.81056 v -4.71082 z m 2.11202,2.32234 0.76429,0.84026 v 4.65914 h -0.76429 z"
         id="path2244-1-6" />
    </g>
  </g>
</svg>
