<?xml version="1.0" encoding="UTF-8" standalone="no"?>
<svg
   xmlns:dc="http://purl.org/dc/elements/1.1/"
   xmlns:cc="http://creativecommons.org/ns#"
   xmlns:rdf="http://www.w3.org/1999/02/22-rdf-syntax-ns#"
   xmlns:svg="http://www.w3.org/2000/svg"
   xmlns="http://www.w3.org/2000/svg"
   xmlns:sodipodi="http://sodipodi.sourceforge.net/DTD/sodipodi-0.dtd"
   xmlns:inkscape="http://www.inkscape.org/namespaces/inkscape"
   version="1.1"
   x="0px"
   y="0px"
   viewBox="0 0 25 19.373648"
   xml:space="preserve"
   id="svg1255"
   sodipodi:docname="send-message.svg"
   width="25"
   height="19.373648"
   inkscape:version="0.92.5 (2060ec1f9f, 2020-04-08)"><metadata
     id="metadata1261"><rdf:RDF><cc:Work
         rdf:about=""><dc:format>image/svg+xml</dc:format><dc:type
           rdf:resource="http://purl.org/dc/dcmitype/StillImage" /><dc:title></dc:title></cc:Work></rdf:RDF></metadata><defs
     id="defs1259" /><sodipodi:namedview
     pagecolor="#ffffff"
     bordercolor="#666666"
     borderopacity="1"
     objecttolerance="10"
     gridtolerance="10"
     guidetolerance="10"
     inkscape:pageopacity="0"
     inkscape:pageshadow="2"
     inkscape:window-width="2540"
     inkscape:window-height="1395"
     id="namedview1257"
     showgrid="false"
     inkscape:zoom="2"
     inkscape:cx="34.23285"
     inkscape:cy="-35.114907"
     inkscape:window-x="3850"
     inkscape:window-y="10"
     inkscape:window-maximized="0"
     inkscape:current-layer="svg1255" /><path
     d="m 24.777981,0.08438527 c -0.111012,-0.08326 -0.277543,-0.111013 -0.416315,-0.05551 L 0.881467,5.7462733 c -0.4440709,0.111013 -0.7771235,0.444071 -0.8603865,0.888141 -0.083264,0.44407 0.083263,0.888139 0.4440699,1.193438 l 5.8839276,3.9966287 0.555088,7.132875 c 0,0.02775 0,0.05551 0.02775,0.08326 0,0.02775 0,0.02775 0.02775,0.05551 0.02775,0.05551 0.05551,0.08326 0.08326,0.111012 0,0 0,0 0,0.02775 v 0 c 0.02775,0.02775 0.08326,0.08326 0.138772,0.08326 0.02775,0 0.02775,0 0.05551,0.02775 0.02775,0 0.05551,0.02775 0.08326,0.02775 0.02775,0 0.02775,0 0.05551,0 v 0 0 0 c 0.05551,0 0.111013,0 0.138772,-0.02775 0.02775,0 0.02775,-0.02775 0.02775,-0.02775 0.02775,-0.02775 0.05551,-0.02775 0.08326,-0.05551 0,0 0,0 0.02775,0 l 3.968875,-3.774595 5.13456,3.441543 c 0,0 0.02775,0 0.02775,0.02775 0.166526,0.111012 0.360806,0.138771 0.582841,0.138771 0.138773,0 0.277544,-0.02775 0.416316,-0.08326 0.333052,-0.111013 0.582843,-0.360808 0.69386,-0.69386 v 0 L 25,0.58394527 c 0,-0.166527 -0.05551,-0.388562 -0.222035,-0.499579 z M 8.763708,12.906906 c -0.08326,0.05551 -0.138771,0.166526 -0.138771,0.277543 0,0 0,0.02775 -0.02775,0.02775 L 7.59803,16.570479 7.264977,12.018761 18.755287,4.6638513 Z M 0.853712,6.8286983 c 0,-0.05551 0.05551,-0.19428 0.222035,-0.249789 L 22.113562,1.4721043 6.931919,11.186134 0.964729,7.1339953 C 0.825958,7.0229833 0.853717,6.8842073 0.853717,6.8286983 Z m 7.354908,10.6576787 1.082421,-3.55256 1.554245,1.054667 z m 9.408734,0.527333 c -0.05551,0.111013 -0.138773,0.166526 -0.194281,0.166526 -0.05551,0.02775 -0.138772,0.02775 -0.249789,0 L 9.762865,13.184449 23.556789,1.8051563 Z"
     id="path1249"
     inkscape:connector-curvature="0"
     style="fill:#ffffff;stroke-width:0.27754372" /></svg>